<svg width="512" height="464" viewBox="0 0 512 464" fill="none" xmlns="http://www.w3.org/2000/svg">
<path d="M476 0C495.882 0 512 16.1177 512 36V428C512 447.882 495.882 464 476 464H36C16.1177 464 0 447.882 0 428V36C6.70071e-06 16.1178 16.1178 0 36 0H476ZM418.268 203.558L408.768 208.558L408.744 208.569L408.723 208.584L398.233 215.576L389.239 221.073L389.201 221.097L389.168 221.126L384.668 225.126L384.5 225.275V360H339.943L339.888 360.013L326.888 363.013L326.864 363.019L307.364 368.519L307.336 368.526L307.309 368.538L286.809 377.038L286.79 377.046L286.772 377.055L266.272 387.555L266.261 387.561L266.249 387.567L256.865 393H253.115L215.717 375.049L215.688 375.035L178.158 362.525L178.145 362.521L178.132 362.518L172.567 361H92.667L91 359.749V217.678L90.707 217.545L63.207 205.045L63.1084 205H58.2432L58.0928 205.209L55.5928 208.709L55.5 208.84V380.555L55.5117 380.608L56.5117 385.108L56.5371 385.222L56.6094 385.312L60.6094 390.312L60.6455 390.357L60.6914 390.394L67.6914 395.894L67.8242 395.998L67.9941 396L159.946 396.999L181.365 401.482L196.329 406.47L217.786 415.452L239.272 426.445V426.444L251.77 432.943L251.805 432.962L251.842 432.975L256.342 434.475L256.519 434.533L256.69 434.462L265.19 430.962L265.223 430.949L265.252 430.932L277.237 423.94L290.237 416.94L304.204 409.957L322.148 402.479L347.55 397.499L404.009 396.5L404.101 396.498L404.186 396.464L409.239 394.442L409.287 394.409L414.287 390.909L414.344 390.87L414.387 390.816L418.887 385.316L419 385.179V203.172L418.268 203.558ZM123.561 138.762L104.561 173.762L104.305 174.232L104.793 174.455L138.764 189.941L164.705 206.404L189.673 224.881L213.621 249.327L235.085 277.28L246.061 295.74L256.053 315.724L256.097 315.812L256.171 315.876L260.171 319.376L260.592 319.744L260.91 319.285L281.41 289.785L281.604 289.506L281.416 289.223L276.432 281.747L264.445 258.272L264.44 258.263L264.436 258.254L249.436 231.754L249.418 231.724L249.397 231.697L233.397 210.697L233.387 210.683L233.375 210.669L214.375 189.169L214.343 189.132L214.304 189.103L186.804 168.103L186.785 168.089L186.766 168.076L165.266 154.576L165.236 154.559L165.205 154.544L129.705 138.544L129.607 138.5H123.702L123.561 138.762ZM170.702 85.5L170.561 85.7617L151.561 120.762L151.305 121.232L151.793 121.455L185.764 136.941L211.705 153.404L236.673 171.881L260.621 196.327L282.085 224.28L293.061 242.74L303.053 262.724L303.097 262.812L303.171 262.876L307.171 266.376L307.592 266.744L307.91 266.285L328.41 236.785L328.604 236.506L328.416 236.223L323.432 228.747L311.445 205.272L311.44 205.263L311.436 205.254L296.436 178.754L296.418 178.724L296.397 178.697L280.397 157.697L280.387 157.683L280.375 157.669L261.375 136.169L261.343 136.132L261.304 136.103L233.804 115.103L233.785 115.089L233.766 115.076L212.266 101.576L212.236 101.559L212.205 101.544L176.705 85.5439L176.607 85.5H170.702ZM211.561 29.7617L192.561 64.7617L192.305 65.2324L192.793 65.4551L226.764 80.9414L252.705 97.4043L277.673 115.881L301.621 140.327L323.085 168.28L334.061 186.74L344.053 206.724L344.097 206.812L344.171 206.876L348.171 210.376L348.592 210.744L348.91 210.285L369.41 180.785L369.604 180.506L369.416 180.223L364.432 172.747L352.445 149.272L352.44 149.263L352.436 149.254L337.436 122.754L337.418 122.724L337.397 122.697L321.397 101.697L321.387 101.683L321.375 101.669L302.375 80.1689L302.343 80.1318L302.304 80.1025L274.804 59.1025L274.785 59.0889L274.766 59.0762L253.266 45.5762L253.236 45.5586L253.205 45.5439L217.705 29.5439L217.607 29.5H211.702L211.561 29.7617Z" fill="#2A2727"/>
</svg>
